<svg xmlns="http://www.w3.org/2000/svg" viewBox="0 0 1080 1080">
  <!-- Fondo con gradiente -->
  <defs>
    <linearGradient id="bgGradient" x1="0%" y1="0%" x2="100%" y2="100%">
      <stop offset="0%" stop-color="#4353FF" />
      <stop offset="100%" stop-color="#303EE0" />
    </linearGradient>
    <filter id="dropShadow" x="-20%" y="-20%" width="140%" height="140%">
      <feGaussianBlur in="SourceAlpha" stdDeviation="8" />
      <feOffset dx="0" dy="8" result="offsetblur" />
      <feComponentTransfer>
        <feFuncA type="linear" slope="0.3" />
      </feComponentTransfer>
      <feMerge>
        <feMergeNode />
        <feMergeNode in="SourceGraphic" />
      </feMerge>
    </filter>
  </defs>
  
  <!-- Fondo -->
  <rect width="1080" height="1080" fill="url(#bgGradient)" />
  
  <!-- Elementos decorativos -->
  <circle cx="120" cy="150" r="280" fill="#5464FF" opacity="0.2" />
  <circle cx="950" cy="900" r="320" fill="#3242FF" opacity="0.2" />
  
  <!-- Contenedor principal -->
  <rect x="150" y="150" width="780" height="780" rx="20" fill="white" filter="url(#dropShadow)" />
  
  <!-- Encabezado -->
  <rect x="150" y="150" width="780" height="140" rx="20" fill="#4353FF" />
  
  <!-- Logo Nextify en encabezado -->
  <g transform="translate(180, 195) scale(0.8)">
    <path d="M0,0 L15,0 L15,50 L0,50 Z M15,0 L45,50 L45,0 Z M45,0 L60,0 L60,50 L45,50 Z" fill="white"/>
    <path d="M22,15 L30,25 M22,30 L30,40" stroke="white" stroke-width="2" stroke-linecap="round"/>
    <circle cx="38" cy="15" r="5" fill="none" stroke="white" stroke-width="2"/>
  </g>
  
  <!-- Texto encabezado -->
  <text x="270" y="220" font-family="Arial, sans-serif" font-size="36" font-weight="bold" fill="white">
    Next<tspan fill="#E6E6FF">ify</tspan>
  </text>
  
  <!-- Nuevo mensaje principal -->
  <text x="540" y="340" font-family="Arial, sans-serif" font-size="48" font-weight="bold" text-anchor="middle" fill="#4353FF">
    ¡CREA TU TIENDA ONLINE
  </text>
  <text x="540" y="400" font-family="Arial, sans-serif" font-size="48" font-weight="bold" text-anchor="middle" fill="#4353FF">
    HOY MISMO!
  </text>
  
  <!-- Título del plan -->
  <text x="540" y="460" font-family="Arial, sans-serif" font-size="36" font-weight="bold" text-anchor="middle" fill="#333333">
    PLAN PREMIUM
  </text>
  
  <!-- Precio -->
  <g>
    <rect x="330" y="480" width="420" height="70" rx="35" fill="#FF4D4D" />
    <text x="540" y="530" font-family="Arial, sans-serif" font-size="36" font-weight="bold" text-anchor="middle" fill="white">
      Gs. 3.900.000
    </text>
  </g>
  
  <!-- Línea separadora -->
  <line x1="250" y1="570" x2="830" y2="570" stroke="#EEEEEE" stroke-width="3" />
  
  <!-- Características -->
  <g transform="translate(230, 590)">
    <circle cx="15" cy="15" r="15" fill="#4353FF" />
    <path d="M8,15 L14,21 L22,9" stroke="white" stroke-width="3" stroke-linecap="round" stroke-linejoin="round" fill="none" />
    <text x="50" y="21" font-family="Arial, sans-serif" font-size="20" fill="#333333">Todo lo incluido en el plan estandar</text>
  </g>
  
  <g transform="translate(230, 630)">
    <circle cx="15" cy="15" r="15" fill="#4353FF" />
    <path d="M8,15 L14,21 L22,9" stroke="white" stroke-width="3" stroke-linecap="round" stroke-linejoin="round" fill="none" />
    <text x="50" y="21" font-family="Arial, sans-serif" font-size="20" fill="#333333">Desarrollo de diseño completamente personalizado</text>
  </g>
  
  <g transform="translate(230, 670)">
    <circle cx="15" cy="15" r="15" fill="#4353FF" />
    <path d="M8,15 L14,21 L22,9" stroke="white" stroke-width="3" stroke-linecap="round" stroke-linejoin="round" fill="none" />
    <text x="50" y="21" font-family="Arial, sans-serif" font-size="20" fill="#333333">Configuración de hasta 50 productos</text>
  </g>
  
  <g transform="translate(230, 710)">
    <circle cx="15" cy="15" r="15" fill="#4353FF" />
    <path d="M8,15 L14,21 L22,9" stroke="white" stroke-width="3" stroke-linecap="round" stroke-linejoin="round" fill="none" />
    <text x="50" y="21" font-family="Arial, sans-serif" font-size="20" fill="#333333">Integración píxel de facebook</text>
  </g>
  
  <g transform="translate(230, 750)">
    <circle cx="15" cy="15" r="15" fill="#4353FF" />
    <path d="M8,15 L14,21 L22,9" stroke="white" stroke-width="3" stroke-linecap="round" stroke-linejoin="round" fill="none" />
    <text x="50" y="21" font-family="Arial, sans-serif" font-size="20" fill="#333333">Integración con 3-5 aplicaciones</text>
  </g>
  
  <g transform="translate(230, 790)">
    <circle cx="15" cy="15" r="15" fill="#4353FF" />
    <path d="M8,15 L14,21 L22,9" stroke="white" stroke-width="3" stroke-linecap="round" stroke-linejoin="round" fill="none" />
    <text x="50" y="21" font-family="Arial, sans-serif" font-size="20" fill="#333333">Optimización avanzada de SEO</text>
  </g>
  
  <g transform="translate(230, 830)">
    <circle cx="15" cy="15" r="15" fill="#4353FF" />
    <path d="M8,15 L14,21 L22,9" stroke="white" stroke-width="3" stroke-linecap="round" stroke-linejoin="round" fill="none" />
    <text x="50" y="21" font-family="Arial, sans-serif" font-size="20" fill="#333333">Soporte por WhatsApp (30 días)</text>
  </g>
  
  <!-- Call to action -->

  
  <!-- Contacto -->
  <text x="540" y="960" font-family="Arial, sans-serif" font-size="20" font-weight="bold" text-anchor="middle" fill="#4353FF">
    www.nextify.lat
  </text>
  
  <!-- Etiqueta de oferta -->
  <g transform="translate(820, 190) rotate(45)">
    <rect x="0" y="0" width="150" height="40" fill="#FF4D4D" />
    <text x="75" y="27" font-family="Arial, sans-serif" font-size="18" font-weight="bold" text-anchor="middle" fill="white">
      OFERTA
    </text>
  </g>
</svg>